<?xml version="1.0" encoding="UTF-8" standalone="no"?>
<svg
   width="24"
   height="24"
   version="1"
   id="svg32"
   sodipodi:docname="mounzil-tray.svg"
   inkscape:version="1.2.2 (b0a8486541, 2022-12-01)"
   inkscape:export-filename="mounzil-tray.svg"
   inkscape:export-xdpi="36"
   inkscape:export-ydpi="36"
   xmlns:inkscape="http://www.inkscape.org/namespaces/inkscape"
   xmlns:sodipodi="http://sodipodi.sourceforge.net/DTD/sodipodi-0.dtd"
   xmlns="http://www.w3.org/2000/svg"
   xmlns:svg="http://www.w3.org/2000/svg">
  <defs
     id="defs36" />
  <sodipodi:namedview
     id="namedview34"
     pagecolor="#ffffff"
     bordercolor="#000000"
     borderopacity="0.25"
     inkscape:showpageshadow="2"
     inkscape:pageopacity="0.0"
     inkscape:pagecheckerboard="0"
     inkscape:deskcolor="#d1d1d1"
     showgrid="false"
     inkscape:zoom="4.859375"
     inkscape:cx="-74.083601"
     inkscape:cy="11.832797"
     inkscape:window-width="1366"
     inkscape:window-height="688"
     inkscape:window-x="0"
     inkscape:window-y="0"
     inkscape:window-maximized="1"
     inkscape:current-layer="svg32" />
  <path
     id="path320"
     style="fill:#008000;stroke-width:0.462806"
     d="M 12.315043,0 A 12.315042,12.745419 0 0 0 0,12.745419 12.315042,12.745419 0 0 0 6.59938,24 10.204652,12.802004 0 0 1 3.744222,15.161923 10.204652,12.802004 0 0 1 13.948852,2.360263 10.204652,12.802004 0 0 1 16.714035,2.858131 9.1684201,9.2197028 0 0 1 22.167789,5.102225 12.315042,12.745419 0 0 0 12.315043,0 Z" />
  <path
     id="path326"
     style="fill:#00a800;fill-opacity:1;stroke-width:0.464014"
     d="m 17.166327,3.344811 a 6.8332485,6.8358832 0 0 0 -0.216475,0.01291 3.7150167,5.7977631 0 0 1 2.146046,5.255272 3.7150167,5.7977631 0 0 1 -3.714825,5.797396 3.7150167,5.7977631 0 0 1 -3.714823,-5.797394 3.7150167,5.7977631 0 0 1 0.631609,-3.211248 6.8332485,6.8358832 0 0 0 -1.964314,4.77861 6.8332485,6.8358832 0 0 0 6.832782,6.836465 A 6.8332485,6.8358832 0 0 0 24,10.180357 6.8332485,6.8358832 0 0 0 17.166327,3.344815 Z" />
  <ellipse
     style="fill:#ff0000;fill-opacity:1;stroke-width:0.464014"
     id="path1064"
     cx="15.235123"
     cy="8.9312248"
     rx="2.1770191"
     ry="2.2222285" />
</svg>
