<?xml version="1.0" encoding="UTF-8" standalone="no"?>
<svg
   width="64"
   height="64"
   version="1"
   id="svg32"
   xmlns="http://www.w3.org/2000/svg"
   xmlns:svg="http://www.w3.org/2000/svg">
  <defs
     id="defs36" />
  <path
     id="path320"
     style="fill:#008000;stroke-width:0.997397"
     d="M 32,5 A 27,27 0 0 0 5,32 27,27 0 0 0 19.46875,55.841797 22.373095,27.119871 0 0 1 13.208984,37.119141 22.373095,27.119871 0 0 1 35.582031,10 a 22.373095,27.119871 0 0 1 6.0625,1.054688 20.101217,19.531094 0 0 1 11.957031,4.753906 A 27,27 0 0 0 32,5 Z" />
  <path
     id="path326"
     style="fill:#00a800;fill-opacity:1"
     d="m 42.636154,12.085674 a 14.981492,14.481191 0 0 0 -0.47461,0.02734 8.1449537,12.282029 0 0 1 4.705079,11.132812 8.1449537,12.282029 0 0 1 -8.144532,12.28125 A 8.1449537,12.282029 0 0 1 30.57756,23.24583 8.1449537,12.282029 0 0 1 31.962326,16.443096 14.981492,14.481191 0 0 0 27.655685,26.566143 14.981492,14.481191 0 0 0 42.636154,41.048565 14.981492,14.481191 0 0 0 57.618576,26.566143 14.981492,14.481191 0 0 0 42.636154,12.085674 Z" />
  <ellipse
     style="fill:#ff0000;fill-opacity:1"
     id="path1064"
     cx="38.402103"
     cy="23.919981"
     rx="4.7729855"
     ry="4.7075872" />
</svg>
