<?xml version="1.0" encoding="UTF-8" standalone="no"?>
<svg
   width="64"
   height="64"
   version="1"
   id="svg32"
   sodipodi:docname="mounzil.svg"
   inkscape:version="1.2.2 (b0a8486541, 2022-12-01)"
   inkscape:export-filename="mounzil.svg"
   inkscape:export-xdpi="36"
   inkscape:export-ydpi="36"
   xmlns:inkscape="http://www.inkscape.org/namespaces/inkscape"
   xmlns:sodipodi="http://sodipodi.sourceforge.net/DTD/sodipodi-0.dtd"
   xmlns="http://www.w3.org/2000/svg"
   xmlns:svg="http://www.w3.org/2000/svg">
  <defs
     id="defs36" />
  <sodipodi:namedview
     id="namedview34"
     pagecolor="#ffffff"
     bordercolor="#000000"
     borderopacity="0.25"
     inkscape:showpageshadow="2"
     inkscape:pageopacity="0.0"
     inkscape:pagecheckerboard="0"
     inkscape:deskcolor="#d1d1d1"
     showgrid="false"
     inkscape:zoom="13.744388"
     inkscape:cx="40.30736"
     inkscape:cy="10.440625"
     inkscape:window-width="1366"
     inkscape:window-height="688"
     inkscape:window-x="0"
     inkscape:window-y="0"
     inkscape:window-maximized="1"
     inkscape:current-layer="svg32" />
  <path
     id="path320"
     style="display:inline;fill:#008000;stroke-width:0.997397"
     d="M 32,5 A 27,27 0 0 0 5,32 27,27 0 0 0 19.46875,55.841797 22.373095,27.119871 0 0 1 13.208984,37.119141 22.373095,27.119871 0 0 1 16.205078,23.689453 20.353588,19.820904 0 0 1 36.359375,6.5683594 20.353588,19.820904 0 0 1 45.917969,8.890625 27,27 0 0 0 32,5 Z m 21.447266,10.628906 a 20.353588,19.820904 0 0 1 0.08398,0.128906 20.101217,19.531094 0 0 1 0.07031,0.05078 27,27 0 0 0 -0.154296,-0.179688 z" />
  <path
     id="path326"
     style="display:inline;fill:#00a800;fill-opacity:1;stroke-width:1.33303"
     d="M 36.171877,7.2059796 A 19.893287,19.378726 0 0 0 35.541665,7.2425659 10.815337,16.435807 0 0 1 41.789339,22.140493 10.815337,16.435807 0 0 1 30.974561,38.575261 10.815337,16.435807 0 0 1 20.159784,22.140502 10.815337,16.435807 0 0 1 21.998556,13.037086 19.893287,19.378726 0 0 0 16.27995,26.583744 19.893287,19.378726 0 0 0 36.171877,45.964117 19.893287,19.378726 0 0 0 56.066401,26.583739 19.893287,19.378726 0 0 0 36.171877,7.2059796 Z"
     sodipodi:insensitive="true" />
  <path
     id="path1913"
     style="fill:#008000;fill-opacity:1;stroke-width:0.645452"
     d="m 40.920633,13.369272 a 4.2099847,14.213332 10.96077 0 0 -0.740987,0.163559 4.4817519,12.743166 3.167304 0 1 1.447541,10.783601 4.4817519,12.743166 3.167304 0 1 -0.383079,3.544233 3.7141405,8.4085023 20.500837 0 1 -0.100074,5.552745 4.2099847,14.213332 10.96077 0 0 1.432462,-5.733527 4.2099847,14.213332 10.96077 0 0 -1.655863,-14.310611 z" />
  <path
     id="path1715"
     style="fill:#e6e6e6;fill-opacity:1;stroke-width:0.516615"
     d="m 23.121322,33.464589 a 12.614339,9.7087294 89.422105 0 0 0.03995,0.141036 12.614339,9.7087294 89.422105 0 0 12.866783,6.317114 A 12.614339,9.7087294 89.422105 0 0 41.47972,25.95591 10.583854,13.179446 6.5206739 0 1 35.187148,36.090687 10.583854,13.179446 6.5206739 0 1 23.121317,33.464589 Z"
     sodipodi:insensitive="true" />
  <ellipse
     style="display:inline;fill:#00a800;fill-opacity:1"
     id="path1064"
     cx="35.523216"
     cy="25.023073"
     rx="4.7729855"
     ry="4.7075872" />
</svg>
