<?xml version="1.0" encoding="UTF-8" standalone="no"?>
<svg
   width="24"
   height="24"
   version="1"
   id="svg32"
   sodipodi:docname="mounzil-tray.svg"
   inkscape:version="1.2.2 (b0a8486541, 2022-12-01)"
   inkscape:export-filename="mounzil.svg"
   inkscape:export-xdpi="36"
   inkscape:export-ydpi="36"
   xmlns:inkscape="http://www.inkscape.org/namespaces/inkscape"
   xmlns:sodipodi="http://sodipodi.sourceforge.net/DTD/sodipodi-0.dtd"
   xmlns="http://www.w3.org/2000/svg"
   xmlns:svg="http://www.w3.org/2000/svg">
  <defs
     id="defs36" />
  <sodipodi:namedview
     id="namedview34"
     pagecolor="#ffffff"
     bordercolor="#000000"
     borderopacity="0.25"
     inkscape:showpageshadow="2"
     inkscape:pageopacity="0.0"
     inkscape:pagecheckerboard="0"
     inkscape:deskcolor="#d1d1d1"
     showgrid="false"
     inkscape:zoom="9.71875"
     inkscape:cx="31.485531"
     inkscape:cy="18.469453"
     inkscape:window-width="1366"
     inkscape:window-height="688"
     inkscape:window-x="0"
     inkscape:window-y="0"
     inkscape:window-maximized="1"
     inkscape:current-layer="svg32" />
  <path
     id="path320"
     style="display:inline;fill:#008000;stroke-width:0.46783"
     d="M 12.686489,0.05 A 12.636489,12.692313 0 0 0 0.05000002,12.742313 12.636489,12.692313 0 0 0 6.8216368,23.95 10.471013,12.748662 0 0 1 3.8919529,15.148748 10.471013,12.748662 0 0 1 5.2941788,8.835644 9.5258476,9.3175228 0 0 1 14.726755,0.78726421 9.5258476,9.3175228 0 0 1 19.20035,1.8789276 12.636489,12.692313 0 0 0 12.686489,0.05 Z m 10.037708,4.9964972 a 9.5258476,9.3175228 0 0 1 0.0393,0.060596 9.4077334,9.1812874 0 0 1 0.0329,0.02387 12.636489,12.692313 0 0 0 -0.07222,-0.084466 z" />
  <path
     id="path326"
     style="display:inline;fill:#00a800;fill-opacity:1;stroke-width:0.625259"
     d="M 14.639002,1.0870001 A 9.3104184,9.1096614 0 0 0 14.344051,1.1041981 5.0617734,7.7262372 0 0 1 17.268076,8.1075006 5.0617734,7.7262372 0 0 1 12.206565,15.833249 5.0617734,7.7262372 0 0 1 7.1450526,8.1075046 5.0617734,7.7262372 0 0 1 8.0056318,3.828119 9.3104184,9.1096614 0 0 0 5.3292202,10.196209 9.3104184,9.1096614 0 0 0 14.639002,19.306644 9.3104184,9.1096614 0 0 0 23.95,10.196207 9.3104184,9.1096614 0 0 0 14.639002,1.0870001 Z" />
  <path
     id="path1913"
     style="fill:#008000;fill-opacity:1;stroke-width:0.30275"
     d="m 16.861506,3.9842756 a 1.9706615,6.6804243 10.904735 0 0 -0.346795,0.076888 2.0975691,5.9902995 3.1495073 0 1 0.677475,5.0692169 2.0975691,5.9902995 3.1495073 0 1 -0.179287,1.6660935 1.7392196,3.9505921 20.37829 0 1 -0.04684,2.610265 1.9706615,6.6804243 10.904735 0 0 0.670418,-2.695249 1.9706615,6.6804243 10.904735 0 0 -0.774973,-6.7272127 z" />
  <path
     id="path1715"
     style="fill:#e6e6e6;fill-opacity:1;stroke-width:0.242319"
     d="m 8.5311062,13.430795 a 5.9298173,4.5438631 89.431892 0 0 0.018702,0.0663 5.9298173,4.5438631 89.431892 0 0 6.0218868,2.969585 5.9298173,4.5438631 89.431892 0 0 2.551478,-6.5656069 4.9537113,6.1951234 6.3911924 0 1 -2.945038,4.7642139 4.9537113,6.1951234 6.3911924 0 1 -5.6470266,-1.234492 z" />
  <ellipse
     style="display:inline;fill:#00a800;fill-opacity:1;stroke-width:0.46905"
     id="path1064"
     cx="14.335419"
     cy="9.4625597"
     rx="2.2338436"
     ry="2.2129693" />
</svg>
